<svg xmlns="http://www.w3.org/2000/svg" viewBox="0 0 114.93 162.15" width="270px" height="170px"><path d="M35.53,162.15v-8.33H32.26v-1.16h7.85v1.16H36.84v8.33Z" style="fill:#2d313b"/><path d="M43.67,162.15v-9.49h3a4.52,4.52,0,0,1,1.76.26,2.43,2.43,0,0,1,1.1,1,2.83,2.83,0,0,1,.4,1.53,3,3,0,0,1-.46,1.63,2.3,2.3,0,0,1-1.23,1v0a3.16,3.16,0,0,1,.27.43l2,3.68H49l-2-3.78H45v3.78ZM45,157.22h1.91a1.63,1.63,0,0,0,1.24-.48,1.76,1.76,0,0,0,.46-1.27,1.46,1.46,0,0,0-.89-1.49,3,3,0,0,0-1.14-.16H45Z" style="fill:#2d313b"/><path d="M53.16,162.15l3.4-9.49H58l3.4,9.49H60l-1-2.73H55.47l-1,2.73Zm2.66-3.83H58.7l-1-3L57.27,154h0q-.2.86-.36,1.36Z" style="fill:#2d313b"/><path d="M64.92,162.15v-9.49h3.16a4.82,4.82,0,0,1,3.49,1.26,5.31,5.31,0,0,1,0,7,4.81,4.81,0,0,1-3.49,1.26ZM66.25,161H68a3.51,3.51,0,0,0,2.57-.93,3.58,3.58,0,0,0,.95-2.67A3.27,3.27,0,0,0,68,153.82H66.25Z" style="fill:#2d313b"/><path d="M76.92,162.15v-9.49h5.52v1.16H78.25v3h3.4v1.16h-3.4V161h4.42v1.16Z" style="fill:#2d313b"/><path d="M19.67,145.73,13.6,129.15h2.49l4.13,11.72.63,2.28h0q.33-1.39.63-2.28l4.16-11.72h2.47l-6.06,16.59Z" style="fill:#4d67a6"/><path d="M33,145.73V129.15h9.66v2H35.31v5.19h5.94v2H35.31v5.33H43v2Z" style="fill:#4d67a6"/><path d="M48.59,145.73V129.15h5.26a7.91,7.91,0,0,1,3.08.45,4.25,4.25,0,0,1,1.93,1.67,5,5,0,0,1,.7,2.68,5.15,5.15,0,0,1-.81,2.85,4,4,0,0,1-2.15,1.7v0a5.52,5.52,0,0,1,.47.75l3.52,6.44H58l-3.5-6.6H50.91v6.6Zm2.33-8.62h3.34a2.85,2.85,0,0,0,2.16-.83,3.07,3.07,0,0,0,.8-2.22,2.55,2.55,0,0,0-1.55-2.61,5.25,5.25,0,0,0-2-.28H50.91Z" style="fill:#4d67a6"/><path d="M65.5,139.86V129.15h2.33v10.69a3.88,3.88,0,0,0,1.14,3A4.3,4.3,0,0,0,72,143.88a4.25,4.25,0,0,0,3.05-1.07,3.93,3.93,0,0,0,1.13-3V129.15h2.33v10.71a5.87,5.87,0,0,1-1.79,4.46,6.56,6.56,0,0,1-4.7,1.69,6.67,6.67,0,0,1-4.75-1.69A5.82,5.82,0,0,1,65.5,139.86Z" style="fill:#4d67a6"/><path d="M84.46,145.73l1.36-16.59h2.42l3.83,9,.8,2.23h0q.45-1.32.82-2.23l3.83-9H100l1.34,16.59H99l-.8-10.45,0-2.44h0q-.52,1.53-.89,2.44l-3.31,7.47H91.86l-3.29-7.47-.89-2.49h0a20.69,20.69,0,0,1,0,2.49l-.8,10.45Z" style="fill:#4d67a6"/><path d="M57.47,0a57.47,57.47,0,1,0,57.47,57.47A57.47,57.47,0,0,0,57.47,0Zm.39,95.3a12.3,12.3,0,0,1-7.53-22L43,53.63c-.37,0-.75.06-1.13.06a12.34,12.34,0,1,1,7.56-2.6l7.35,19.66c.36,0,.73-.06,1.1-.06a12.31,12.31,0,0,1,0,24.62ZM72.78,53.69A12.3,12.3,0,1,1,85.08,41.38,12.3,12.3,0,0,1,72.78,53.69Z" style="fill:#4d67a6"/></svg>
