<svg xmlns="http://www.w3.org/2000/svg" viewBox="0 0 237.33 49.85" width="238px" height="51"><path d="M68.69,33.08,62.63,16.49h2.49l4.13,11.72.63,2.28h0q.33-1.39.63-2.28l4.16-11.72H77.2L71.14,33.08Z" style="fill:#2e323c"/><path d="M82,33.08V16.49h9.66v2H84.34V23.7h5.94v2H84.34v5.33h7.73v2Z" style="fill:#2e323c"/><path d="M97.62,33.08V16.49h5.26a7.91,7.91,0,0,1,3.08.45,4.25,4.25,0,0,1,1.93,1.67,5,5,0,0,1,.7,2.68,5.15,5.15,0,0,1-.81,2.85,4,4,0,0,1-2.15,1.7v0a5.52,5.52,0,0,1,.47.75l3.52,6.44H107l-3.5-6.6H99.94v6.6Zm2.33-8.62h3.34a2.85,2.85,0,0,0,2.16-.83,3.07,3.07,0,0,0,.8-2.22,2.55,2.55,0,0,0-1.55-2.61,5.25,5.25,0,0,0-2-.28H99.94Z" style="fill:#2e323c"/><path d="M114.53,27.2V16.49h2.33V27.18a3.88,3.88,0,0,0,1.14,3,4.3,4.3,0,0,0,3.07,1.07,4.25,4.25,0,0,0,3.05-1.07,3.93,3.93,0,0,0,1.13-3V16.49h2.33V27.2a5.87,5.87,0,0,1-1.79,4.46,6.56,6.56,0,0,1-4.7,1.69,6.67,6.67,0,0,1-4.75-1.69A5.82,5.82,0,0,1,114.53,27.2Z" style="fill:#2e323c"/><path d="M133.49,33.08l1.36-16.59h2.42l3.83,9,.8,2.23h0q.45-1.32.82-2.23l3.83-9H149l1.34,16.59h-2.3l-.8-10.45,0-2.44h0q-.52,1.53-.89,2.44L143,30.09h-2.07l-3.29-7.47-.89-2.49h0a20.69,20.69,0,0,1,0,2.49l-.8,10.45Z" style="fill:#2e323c"/><path d="M160.18,33.08V18.51h-5.71v-2h13.72v2h-5.71V33.08Z" style="fill:#4266b2"/><path d="M173.1,33.08V16.49h5.26a7.9,7.9,0,0,1,3.08.45,4.24,4.24,0,0,1,1.93,1.67,4.94,4.94,0,0,1,.7,2.68,5.16,5.16,0,0,1-.81,2.85,4,4,0,0,1-2.15,1.7v0a5.54,5.54,0,0,1,.47.75l3.52,6.44h-2.63l-3.5-6.6h-3.55v6.6Zm2.33-8.62h3.34a2.85,2.85,0,0,0,2.16-.83,3.07,3.07,0,0,0,.8-2.22,2.55,2.55,0,0,0-1.55-2.61,5.24,5.24,0,0,0-2-.28h-2.75Z" style="fill:#4266b2"/><path d="M188.37,33.08l5.94-16.59h2.47l5.94,16.59h-2.4l-1.67-4.77h-6.25l-1.67,4.77Zm4.65-6.7h5l-1.83-5.24-.66-2.37h0q-.35,1.5-.63,2.37Z" style="fill:#4266b2"/><path d="M207.61,33.08V16.49h5.52a8.43,8.43,0,0,1,6.11,2.2,8,8,0,0,1,2.28,6.07,8.11,8.11,0,0,1-2.28,6.11,8.41,8.41,0,0,1-6.11,2.21Zm2.33-2h3a6.13,6.13,0,0,0,4.5-1.63,6.25,6.25,0,0,0,1.66-4.66,6.17,6.17,0,0,0-1.67-4.62A6.14,6.14,0,0,0,213,18.51h-3Z" style="fill:#4266b2"/><path d="M227.28,33.08V16.49h9.66v2H229.6V23.7h5.94v2H229.6v5.33h7.73v2Z" style="fill:#4266b2"/><path d="M24.92,0A24.92,24.92,0,1,0,49.85,24.92,24.92,24.92,0,0,0,24.92,0Zm.17,41.33a5.33,5.33,0,0,1-3.26-9.55l-3.19-8.52-.49,0a5.35,5.35,0,1,1,3.28-1.13l3.19,8.52.48,0a5.34,5.34,0,0,1,0,10.68Zm6.47-18a5.34,5.34,0,1,1,5.34-5.34A5.33,5.33,0,0,1,31.56,23.28Z" style="fill:#4266b2"/></svg>
